<?xml version="1.0" standalone="no"?>
<!DOCTYPE svg PUBLIC "-//W3C//DTD SVG 20010904//EN"
 "http://www.w3.org/TR/2001/REC-SVG-20010904/DTD/svg10.dtd">
<svg version="1.0" xmlns="http://www.w3.org/2000/svg"
 width="512.000000pt" height="512.000000pt" viewBox="0 0 512.000000 512.000000"
 preserveAspectRatio="xMidYMid meet">
<metadata>
Created by potrace 1.11, written by Peter Selinger 2001-2013
</metadata>
<g transform="translate(0.000000,512.000000) scale(0.100000,-0.100000)"
fill="#000000" stroke="none">
<path d="M1160 2910 l0 -580 718 2 717 3 3 578 2 577 -720 0 -720 0 0 -580z
m852 388 c76 -36 139 -90 182 -155 88 -133 89 -342 2 -474 l-25 -36 35 -34
c19 -18 31 -36 27 -40 -11 -9 -240 -42 -251 -35 -8 5 24 245 34 255 2 3 20
-11 39 -29 19 -18 37 -32 39 -29 2 2 17 29 33 59 25 49 28 65 28 150 0 84 -3
102 -28 152 -75 153 -246 235 -407 194 -209 -53 -337 -289 -272 -503 26 -85
64 -138 139 -198 63 -49 135 -80 216 -94 45 -7 47 -9 17 -10 -20 0 -62 6 -93
14 -243 63 -383 294 -321 530 37 144 138 252 283 302 55 20 81 23 158 20 79
-4 101 -9 165 -39z m-110 -376 c-81 -151 -77 -146 -97 -139 -15 6 -13 13 13
59 16 29 48 88 72 131 34 63 45 76 56 67 11 -10 3 -31 -44 -118z m-285 86 c28
-26 29 -53 3 -96 -19 -30 -19 -33 -3 -30 13 2 18 -4 18 -22 0 -24 -3 -25 -62
-28 -41 -2 -63 1 -63 8 0 6 16 32 35 57 19 25 35 55 35 67 -1 20 -2 20 -14 4
-19 -25 -56 -24 -56 2 0 27 35 60 62 60 12 0 32 -10 45 -22z m153 -33 c0 -30
5 -55 10 -55 6 0 10 -11 10 -25 0 -14 -4 -25 -10 -25 -5 0 -10 -9 -10 -20 0
-15 -7 -20 -25 -20 -18 0 -25 5 -25 20 0 16 -7 20 -35 20 -31 0 -35 3 -35 26
0 15 14 51 31 80 26 46 35 54 60 54 29 0 29 -1 29 -55z m340 48 c0 -5 -18 -50
-41 -100 -35 -78 -46 -93 -65 -93 -12 0 -25 3 -27 8 -3 4 10 37 28 75 l32 67
-28 0 c-24 0 -29 4 -29 25 0 24 2 25 65 25 36 0 65 -3 65 -7z"/>
<path d="M1706 2935 c-3 -8 -1 -15 4 -15 6 0 10 7 10 15 0 8 -2 15 -4 15 -2 0
-6 -7 -10 -15z"/>
<path d="M2704 3319 c-12 -6 -27 -21 -33 -33 -8 -15 -11 -199 -9 -673 l3 -652
23 -23 c21 -22 31 -23 185 -26 l162 -3 22 43 c51 107 132 158 247 158 84 0
136 -21 191 -75 21 -21 46 -58 57 -82 l19 -43 164 0 c90 0 175 4 190 10 52 20
56 52 53 373 l-3 292 -57 116 c-125 254 -325 453 -588 582 l-85 42 -260 2
c-167 1 -268 -2 -281 -8z m594 -193 c131 -66 252 -177 336 -309 36 -56 76
-139 76 -158 0 -5 -188 -9 -460 -9 l-460 0 0 233 c0 194 3 236 16 255 15 22
20 22 220 22 l204 0 68 -34z"/>
<path d="M1161 2244 c-19 -24 -21 -40 -21 -156 0 -124 1 -130 25 -153 21 -22
33 -25 98 -25 l73 0 13 36 c19 52 78 114 136 140 136 64 317 -6 366 -140 l13
-36 348 0 349 0 24 25 c24 23 25 29 25 160 0 122 -2 137 -20 155 -20 20 -33
20 -714 20 l-695 0 -20 -26z"/>
<path d="M1544 2068 c-50 -11 -118 -66 -144 -119 -26 -50 -26 -139 -1 -195 73
-160 313 -163 394 -5 88 175 -58 362 -249 319z m161 -72 c101 -78 95 -223 -13
-297 -27 -18 -48 -24 -92 -24 -192 0 -249 260 -75 341 49 23 136 13 180 -20z"/>
<path d="M1554 1966 c-48 -21 -74 -61 -74 -115 0 -53 18 -84 60 -106 85 -44
180 13 180 107 -1 86 -89 148 -166 114z"/>
<path d="M3249 2066 c-81 -21 -141 -84 -158 -167 -41 -191 163 -335 333 -235
28 17 55 43 72 72 102 174 -53 382 -247 330z m141 -56 c77 -39 116 -136 86
-214 -56 -147 -247 -166 -323 -31 -87 153 80 325 237 245z"/>
<path d="M3264 1966 c-65 -29 -96 -99 -70 -160 38 -92 169 -101 220 -16 57 98
-47 221 -150 176z"/>
</g>
</svg>
